HIERARCHY
ROOT simHips
{
  OFFSET 14.9492 99.6293 -2.50098
  CHANNELS 6 Xposition Yposition Zposition Zrotation Xrotation Yrotation
  JOINT simSpine
  {
    OFFSET -0.000355721 21.3001 -0.016921
    CHANNELS 3 Zrotation Xrotation Yrotation
    JOINT simLeftArm
    {
      OFFSET 13.5181 21.3012 0
      CHANNELS 3 Zrotation Xrotation Yrotation
      JOINT simLeftForeArm
      {
        OFFSET 24.5783 0 0
        CHANNELS 3 Zrotation Xrotation Yrotation
        JOINT simLeftHand
        {
          OFFSET 24.5783 0 0
          CHANNELS 3 Zrotation Xrotation Yrotation
          End Site
          {
            OFFSET 7.32568 1.52588e-005 0.0169305
          }
        }
      }
    }
    JOINT simHead
    {
      OFFSET 0 27.4458 -0.00489235
      CHANNELS 3 Zrotation Xrotation Yrotation
      End Site
      {
        OFFSET 0 0 0
      }
    }
    JOINT simRightArm
    {
      OFFSET -13.5174 21.3012 0
      CHANNELS 3 Zrotation Xrotation Yrotation
      JOINT simRightForeArm
      {
        OFFSET -24.5783 0 0
        CHANNELS 3 Zrotation Xrotation Yrotation
        JOINT simRightHand
        {
          OFFSET -24.5783 0 0
          CHANNELS 3 Zrotation Xrotation Yrotation
          End Site
          {
            OFFSET -7.32568 1.52588e-005 0.0169305
          }
        }
      }
    }
  }
  JOINT simRightUpLeg
  {
    OFFSET -8.44614 -9.41038 0.835684
    CHANNELS 3 Zrotation Xrotation Yrotation
    JOINT simRightLeg
    {
      OFFSET 0 -40.9639 0
      CHANNELS 3 Zrotation Xrotation Yrotation
      JOINT simRightFoot
      {
        OFFSET 0 -40.9639 0
        CHANNELS 3 Zrotation Xrotation Yrotation
        End Site
        {
          OFFSET 0.50614 -9.67405 14.6709
        }
      }
    }
  }
  JOINT simLeftUpLeg
  {
    OFFSET 8.44614 -9.41038 0.835684
    CHANNELS 3 Zrotation Xrotation Yrotation
    JOINT simLeftLeg
    {
      OFFSET 0 -40.9639 0
      CHANNELS 3 Zrotation Xrotation Yrotation
      JOINT simLeftFoot
      {
        OFFSET 0 -40.9639 0
        CHANNELS 3 Zrotation Xrotation Yrotation
        End Site
        {
          OFFSET -0.50614 -9.67405 14.6709
        }
      }
    }
  }
}
MOTION
Frames:	21
Frame Time:	0.0333333
14.9492 99.6293 -2.50098 0 0 -1.00052e-008 -0 0 1.00052e-008 -6.83019e-006 -1.70755e-006 -1.53679e-005 6.83019e-006 1.70755e-006 2.5174e-005 3.31277e-014 -5.74558e-021 -1.03619e-005 -0 0 1.06722e-007 6.83019e-006 -8.53773e-007 5.12264e-006 -6.83019e-006 -5.97642e-006 -1.49421e-005 -5.75742e-013 6.83019e-006 9.60599e-006 -1.4354 3.91201 0.0808838 2.3626e-005 5.09773 0.019177 1.44468 -9.00942 0.126614 1.79154 6.33502 -0.099157 -3.4734e-006 0.000701817 -2.27172e-006 -1.79154 -6.33572 -0.0991662 
14.9489 99.636 -2.42141 0.0172867 -0.0298981 0.074746 0.0934552 0.163432 -0.0619778 -0.62879 0.0997477 -0.107012 0.0823808 0.132148 -0.239042 0.12573 0.09619 -0.111471 0.00199322 0.342549 -0.0416522 0.52444 0.430734 -0.157535 -0.239972 -0.18608 1.52224 -0.097549 0.0650337 0.387459 -1.42985 3.9111 0.131083 0.0321949 5.34312 -0.0552841 1.40285 -9.22199 0.0713011 1.84402 6.29618 -0.0414322 -0.0468176 0.25278 -0.0371498 -1.77971 -6.46189 -0.190364 
14.8883 99.6448 -2.30013 0.0388024 -0.0583702 0.111583 0.252793 0.149292 -0.101761 -1.59174 0.28027 -0.461942 0.11456 0.350909 -0.0675403 0.189652 0.159113 -0.165423 -0.118535 1.06583 -0.31917 1.37441 0.825533 -0.295383 -0.462847 -0.560653 3.3976 -0.284405 0.0931753 0.626695 -1.41952 3.85948 0.157963 0.0836783 5.69727 -0.137473 1.31082 -9.4594 0.0370039 1.88542 6.38282 -0.053773 -0.0648548 0.318641 -0.04931 -1.84453 -6.61029 -0.238646 
14.8051 99.636 -2.15998 0.0443462 -0.0933296 0.135367 0.289587 0.0989092 -0.0910684 -3.14033 0.282994 -1.12938 0.390507 0.950686 7.81195e-006 0.496538 0.451946 -0.0564675 -0.0833452 1.89312 -0.643013 3.06509 1.2046 -0.711986 -0.737408 -1.33688 6.34412 -0.535276 0.0474381 0.753539 -1.38601 3.78642 0.134027 0.164084 6.10067 -0.22166 1.19096 -9.64362 0.0222866 1.94917 6.60747 -0.173569 -0.0488907 0.155906 -0.0462843 -1.99422 -6.69887 -0.226874 
14.6869 99.63 -2.02034 0.0495156 -0.0921028 0.208295 0.279602 0.0731176 -0.0622575 -5.62589 1.46911 -2.10256 0.796387 2.09727 -0.683768 0.97949 1.16441 -0.454478 0.0326455 2.34575 -0.862914 5.89844 1.7117 -1.53267 -1.08906 -2.37005 10.8569 -0.759912 -0.0704434 1.6401 -1.34516 3.60675 0.115309 0.277364 6.65527 -0.346219 1.03991 -9.91609 -0.0209014 2.05417 6.73554 -0.273099 -0.0544507 0.10065 -0.0583356 -2.14483 -6.82676 -0.255815 
14.5361 99.6206 -1.85948 0.0725544 -0.0717495 0.331427 0.292201 0.120992 -0.111333 -9.04484 3.95648 -3.37916 0.974635 3.45604 -2.03485 1.46928 2.03021 -1.54753 0.149176 2.39835 -0.748167 9.76637 3.24925 -2.19363 -1.85656 -2.70057 16.4229 -1.15761 0.285974 3.44951 -1.28008 3.44362 0.158111 0.381362 7.19264 -0.511323 0.886395 -10.2587 -0.115506 2.15987 6.74553 -0.345201 -0.0753585 0.225901 -0.0917852 -2.24065 -6.99009 -0.316446 
14.3507 99.5931 -1.68099 0.126009 -0.0370586 0.474967 0.446009 0.262085 -0.249454 -13.2888 7.0613 -4.76256 0.59051 4.27252 -3.94836 2.00274 2.68803 -2.79079 0.0944856 2.22388 -0.176527 14.2954 5.12639 -2.50702 -3.07237 -2.53799 22.2731 -1.98748 1.07561 5.81418 -1.2183 3.30987 0.23911 0.463366 7.66492 -0.686071 0.750798 -10.5991 -0.213983 2.26267 6.73455 -0.316918 -0.121346 0.38135 -0.150823 -2.30348 -7.16152 -0.428691 
14.134 99.5562 -1.45898 0.220648 0.0135839 0.596921 0.876381 0.331347 -0.376452 -18.5862 9.57546 -6.08436 0.0268595 4.7911 -6.32668 2.5484 3.27364 -4.09091 -0.270843 2.12275 0.498114 19.1327 7.02139 -2.57012 -3.76113 -2.52692 27.7037 -3.04397 1.8703 7.93718 -1.17858 3.22422 0.350728 0.51838 8.08159 -0.856351 0.634086 -11.0182 -0.268653 2.342 6.74734 -0.254107 -0.155507 0.530497 -0.213379 -2.37493 -7.37524 -0.578368 
13.8844 99.5118 -1.18299 0.355442 0.0657494 0.691467 1.4504 0.303011 -0.551503 -24.7681 11.6652 -7.1726 -0.583881 5.24152 -9.17882 2.9423 3.88515 -5.7754 -0.751748 2.17214 0.88124 24.1987 8.47972 -2.40349 -3.01344 -3.1554 32.1109 -3.27996 1.91756 9.64639 -1.15123 3.19848 0.541156 0.554503 8.48729 -1.05116 0.53641 -11.5273 -0.353596 2.40082 6.83488 -0.208956 -0.184753 0.615046 -0.278122 -2.52077 -7.61488 -0.706323 
13.5974 99.4686 -0.860583 0.485205 0.107898 0.738423 1.98413 0.218177 -0.715218 -31.3211 14.1439 -8.26935 -1.3212 5.74689 -12.5357 3.6063 4.77725 -7.78767 -1.07254 2.31378 0.84838 29.5048 10.1856 -1.77334 -1.44007 -3.71063 34.8632 -3.02156 1.62156 10.8688 -1.11134 3.11478 0.789263 0.625618 9.0595 -1.23077 0.437316 -12.0448 -0.439524 2.48924 6.90205 -0.206561 -0.224215 0.820399 -0.318082 -2.66406 -7.8908 -0.784038 
13.2674 99.4268 -0.47265 0.566614 0.166521 0.646756 2.3296 0.050622 -0.787999 -38.1833 15.6809 -8.81994 -1.76242 6.1119 -16.1815 4.26353 5.62482 -10.0555 -1.14663 2.40496 0.313589 34.874 12.4909 -0.720239 0.207287 -3.81321 35.8836 -2.54732 1.25857 11.7596 -0.989079 3.0487 1.04465 0.682758 9.59647 -1.36217 0.301059 -12.4762 -0.478447 2.64083 6.91591 -0.222041 -0.284105 1.21537 -0.284382 -2.70346 -8.15683 -0.739272 
12.8907 99.3799 -0.0303733 0.605822 0.234085 0.463669 2.59178 -0.0874871 -0.640457 -44.9169 16.9249 -9.16109 -1.83466 6.19222 -19.6991 5.36482 6.453 -12.3762 -1.1465 2.46104 -0.473707 39.8896 15.2314 0.453196 1.84514 -3.63407 35.5498 -1.86404 0.786423 12.3783 -0.825091 3.00596 1.21945 0.762552 10.1189 -1.43488 0.180929 -12.94 -0.384392 2.85826 6.72194 -0.347263 -0.37889 2.07339 -0.19865 -2.61791 -8.47068 -0.504548 
12.4496 99.3152 0.48165 0.601015 0.265805 0.240247 2.75498 -0.169198 -0.316746 -50.7842 18.1865 -9.52917 -2.16863 5.69405 -22.5216 7.02833 7.14928 -14.471 -1.05336 2.6629 -1.37982 44.5375 17.9141 1.46988 3.20251 -3.25586 34.0979 -1.10643 0.257589 12.7187 -0.559233 3.20301 1.20945 0.80144 10.3658 -1.46177 -0.028831 -13.326 -0.172815 3.18456 6.40083 -0.533805 -0.543586 3.3257 -0.107213 -2.45417 -8.66081 -0.149212 
11.9455 99.2274 1.04755 0.528421 0.264994 0.0127501 2.92993 -0.203756 0.0671438 -55.5016 19.2156 -9.7357 -2.67487 4.9555 -24.7003 8.69339 7.69265 -16.0692 -0.907198 3.10365 -2.43304 48.5503 20.4042 2.24444 3.93826 -2.59577 31.9822 -0.544101 -0.136081 13.2904 -0.158484 3.46394 1.17496 0.782971 10.5508 -1.44242 -0.18153 -13.715 0.0754454 3.63308 4.47323 -0.907026 -0.782309 7.85243 -0.0852066 -2.35265 -9.94262 0.404708 
11.38 99.1112 1.65391 0.387105 0.157512 -0.102356 3.0207 -0.0321647 0.25762 -58.9343 19.5186 -9.78977 -3.53356 3.9551 -25.9882 9.93145 7.85414 -17.0117 -0.585227 3.79184 -3.31724 52.119 23.2995 3.13053 2.88032 -0.908562 29.425 -1.1851 0.241046 14.9423 0.369515 4.14081 1.10794 0.708565 10.3756 -1.41418 -0.349277 -14.0886 0.359486 4.20807 1.71136 -1.19017 -1.12946 14.1002 -0.221669 -2.06728 -11.0381 1.05963 
10.7634 98.9531 2.27999 0.215727 0.00857973 -0.0806523 3.07803 0.391211 0.297493 -60.6151 19.9745 -10.3165 -4.51446 3.11991 -26.5939 10.7441 7.85674 -17.6781 -0.136842 4.39595 -3.88163 54.8424 26.4501 4.03637 0.993402 1.40103 26.8927 -2.81796 1.0043 18.1471 0.983591 4.71337 1.07375 0.644515 10.4406 -1.4477 -0.548132 -14.5463 0.591235 4.81041 -1.45231 -1.53003 -1.48199 20.9743 -0.58893 -1.98197 -11.3674 1.93558 
10.0962 98.7812 2.90908 0.0478394 -0.178546 0.3206 3.03542 1.21114 0.0668568 -60.144 21.1443 -11.906 -4.97013 2.98053 -27.007 11.4004 8.12431 -18.3263 0.411505 4.61036 -4.38677 56.7376 28.1762 4.94434 0.489102 2.90921 23.8677 -4.69079 1.59096 20.2783 1.69621 5.43445 1.11495 0.534047 10.4201 -1.56868 -0.719425 -15.0407 0.618034 5.80663 -5.14372 -1.513 -2.33407 28.5843 -1.25754 -2.2832 -10.6968 2.4207 
9.44765 98.6139 3.49025 0.0109567 -0.363493 0.762863 2.53855 2.48663 -0.327012 -58.2012 21.8863 -14.0328 -4.44474 3.59526 -26.9426 12.2022 8.59372 -19.3281 1.17255 4.38455 -4.70446 58.0175 28.7337 6.44167 1.34584 3.55217 19.8814 -5.58002 1.69179 20.7844 2.24906 6.20404 1.15433 0.505948 10.2121 -1.80524 -0.966764 -15.4958 0.569533 6.95795 -9.37605 -1.53692 -3.55481 36.7212 -2.23043 -3.17986 -8.38649 2.57154 
8.86706 98.4498 4.06475 -0.0199706 -0.581092 1.35646 2.16871 4.00025 -0.801703 -55.7441 22.1019 -16.3044 -3.90022 4.42839 -26.0705 12.9176 9.07512 -19.8428 1.66252 3.99478 -4.99046 58.6161 28.1055 7.99898 3.12014 3.29104 15.4126 -4.57989 1.14089 19.1727 2.73579 6.98902 1.07245 0.546089 10.0613 -2.04921 -1.17612 -15.985 0.547486 7.42287 -14.2769 -1.33703 -3.41691 45.1939 -3.77791 -3.13883 -3.78002 2.68203 
8.40839 98.2697 4.69022 -0.0905484 -0.925896 2.0651 2.05771 5.71853 -1.3007 -53.4172 21.6967 -18.334 -3.90787 5.03321 -24.4769 13.1125 9.32753 -19.3433 1.92429 3.527 -5.30021 58.6552 27.1237 9.4647 4.70082 2.77061 11.2831 -3.07572 0.523399 16.1662 3.11722 8.09169 0.490163 0.697954 9.61396 -2.21007 -1.24978 -16.4091 0.829182 7.24845 -19.0099 -0.380233 -1.86423 52.949 -5.34571 -0.561853 1.00411 2.6524 
8.0583 98.1112 5.45964 -0.160017 -1.23501 2.71013 1.95885 7.35877 -1.72521 -51.4873 20.8272 -19.8021 -4.12374 5.45972 -22.4934 12.5795 9.18243 -18.427 2.25749 3.12948 -5.53224 58.1977 27.1139 11.1062 5.5571 2.79822 8.01115 -2.21527 0.33168 13.434 3.43651 9.38414 -0.181066 0.855881 8.86242 -2.33967 -1.1967 -16.6955 1.16392 6.94549 -22.713 0.942502 0.126207 57.9526 -6.50808 1.08164 2.1767 3.38963 
